<svg width="1281" height="462" viewBox="0 0 1281 462" fill="none" xmlns="http://www.w3.org/2000/svg">
<g clip-path="url(#clip0_38_50)">
<path d="M-0.000256934 446.953V10.3523C-0.000285693 7.61877 1.08233 4.99652 3.01075 3.05918C4.93917 1.12185 7.55639 0.0271875 10.2898 0.0146484H74.6386C77.3555 0.0520418 79.9485 1.15767 81.8565 3.09232C83.7645 5.02698 84.8341 7.63504 84.8339 10.3523V366.006C84.8339 368.735 85.918 371.353 87.8478 373.283C89.7775 375.212 92.3949 376.297 95.124 376.297H214.527C217.265 376.309 219.887 377.402 221.823 379.338C223.759 381.274 224.852 383.896 224.865 386.634V447.001C224.852 449.734 223.758 452.351 221.82 454.28C219.883 456.208 217.261 457.291 214.527 457.291H10.2898C8.93453 457.291 7.59257 457.023 6.34102 456.503C5.08946 455.983 3.95297 455.221 2.99682 454.26C2.04068 453.3 1.2837 452.16 0.769368 450.906C0.255038 449.652 -0.00650263 448.309 -0.000256934 446.953Z" fill="#1D1D1B"/>
<path d="M419.476 446.953V124.493C419.476 121.764 420.56 119.147 422.49 117.217C424.42 115.287 427.037 114.203 429.766 114.203H485.01C487.739 114.203 490.357 115.287 492.286 117.217C494.216 119.147 495.3 121.764 495.3 124.493C495.302 126.413 495.841 128.293 496.856 129.922C497.87 131.551 499.32 132.864 501.042 133.712C502.763 134.561 504.687 134.911 506.597 134.723C508.507 134.535 510.327 133.817 511.85 132.65C520.499 125.846 529.98 120.173 540.065 115.768C556.634 109.121 574.378 105.895 592.227 106.284C642.144 106.284 678.594 123.814 701.577 158.873C710.07 172.706 715.968 187.973 718.98 203.923C722.786 226.892 724.453 250.164 723.959 273.441V446.858C723.959 449.587 722.875 452.205 720.945 454.135C719.015 456.064 716.398 457.148 713.669 457.148H652.023C649.294 457.148 646.677 456.064 644.747 454.135C642.817 452.205 641.733 449.587 641.733 446.858V289.422C641.733 245.163 635.884 216.062 624.188 202.121C613.091 188.622 597.079 181.872 576.151 181.872C547.921 181.872 527.467 192.937 514.79 215.067C509.367 224.017 505.863 233.997 504.5 244.373C502.389 261.311 501.486 278.378 501.797 295.445V446.811C501.797 449.54 500.713 452.157 498.783 454.087C496.853 456.017 494.236 457.101 491.507 457.101H429.861C427.14 457.126 424.52 456.073 422.573 454.171C420.627 452.269 419.513 449.674 419.476 446.953Z" fill="#1D1D1B"/>
<path d="M876.746 277.377L925.588 349.599C924.326 349.95 923.147 350.551 922.121 351.366C921.095 352.18 920.242 353.192 919.613 354.341L859.817 452.549C858.869 454.022 857.562 455.23 856.019 456.059C854.476 456.889 852.748 457.312 850.997 457.291H777.164C775.288 457.293 773.447 456.782 771.84 455.813C770.233 454.844 768.922 453.454 768.048 451.794C767.174 450.134 766.77 448.266 766.881 446.393C766.992 444.521 767.612 442.714 768.676 441.168L875.276 285.818C876.118 284.602 876.687 283.217 876.94 281.76C877.194 280.302 877.128 278.807 876.746 277.377Z" fill="#F1898C"/>
<path d="M1071.93 130.042L989.083 261.444L942.849 192.921L986.096 119.325C987.015 117.779 988.32 116.5 989.883 115.61C991.446 114.721 993.213 114.252 995.011 114.251H1063.2C1065.04 114.245 1066.86 114.736 1068.45 115.671C1070.04 116.605 1071.34 117.95 1072.24 119.564C1073.13 121.178 1073.57 123.002 1073.51 124.845C1073.46 126.689 1072.91 128.483 1071.93 130.042Z" fill="#F1898C"/>
<path d="M1149.27 446.953V199.513C1149.27 196.784 1148.18 194.166 1146.25 192.236C1144.32 190.307 1141.71 189.223 1138.98 189.223H1119.39C1116.65 189.21 1114.03 188.117 1112.1 186.181C1110.16 184.245 1109.07 181.623 1109.06 178.885V124.541C1109.07 121.807 1110.16 119.19 1112.1 117.262C1114.04 115.333 1116.66 114.251 1119.39 114.251H1138.98C1141.71 114.251 1144.32 113.166 1146.25 111.237C1148.18 109.307 1149.27 106.69 1149.27 103.96V10.3522C1149.27 7.6187 1150.35 4.99646 1152.28 3.05912C1154.21 1.12179 1156.82 0.0271265 1159.56 0.0145874H1221.2C1223.94 0.0271265 1226.55 1.12179 1228.48 3.05912C1230.41 4.99646 1231.49 7.6187 1231.49 10.3522V103.96C1231.5 105.318 1231.77 106.661 1232.3 107.913C1232.82 109.165 1233.59 110.301 1234.55 111.256C1235.52 112.212 1236.66 112.968 1237.92 113.482C1239.18 113.996 1240.52 114.257 1241.88 114.251H1270.8C1273.54 114.251 1276.16 115.333 1278.1 117.262C1280.03 119.19 1281.13 121.807 1281.14 124.541V178.885C1281.13 181.623 1280.04 184.245 1278.1 186.181C1276.16 188.117 1273.54 189.21 1270.8 189.223H1241.88C1239.14 189.222 1236.52 190.305 1234.59 192.234C1232.65 194.162 1231.55 196.779 1231.54 199.513V446.953C1231.54 449.682 1230.46 452.3 1228.53 454.229C1226.6 456.159 1223.98 457.243 1221.25 457.243H1159.6C1158.25 457.25 1156.91 456.988 1155.65 456.474C1154.4 455.959 1153.26 455.202 1152.3 454.246C1151.34 453.29 1150.58 452.154 1150.06 450.902C1149.53 449.65 1149.27 448.309 1149.27 446.953Z" fill="#1D1D1B"/>
<path d="M1079.8 457.243H1006.06C1004.31 457.27 1002.59 456.848 1001.05 456.018C999.518 455.188 998.221 453.977 997.287 452.501L937.159 354.293C936.034 352.315 934.277 350.771 932.17 349.911C930.063 349.051 927.728 348.924 925.541 349.551L876.746 277.377C876.495 276.337 876.079 275.345 875.513 274.437L783.708 130.089C782.712 128.533 782.153 126.738 782.09 124.892C782.027 123.046 782.462 121.216 783.35 119.596C784.237 117.976 785.545 116.625 787.135 115.684C788.725 114.744 790.538 114.249 792.386 114.251H860.86C862.646 114.251 864.402 114.714 865.956 115.595C867.51 116.476 868.81 117.745 869.728 119.277L919.423 202.643C920.512 204.509 922.176 205.973 924.165 206.815L979.789 282.688C980.064 283.706 980.514 284.669 981.117 285.534L1088.24 440.883C1089.37 442.427 1090.04 444.253 1090.19 446.159C1090.34 448.065 1089.95 449.974 1089.07 451.672C1088.2 453.371 1086.87 454.792 1085.23 455.776C1083.59 456.76 1081.71 457.268 1079.8 457.243Z" fill="#ACDDF8"/>
<path d="M317.903 131.322H291.632C289.393 131.297 287.171 131.716 285.095 132.556C283.019 133.395 281.131 134.638 279.539 136.213C277.947 137.787 276.683 139.662 275.82 141.729C274.957 143.795 274.513 146.012 274.513 148.251V445.009C274.513 449.499 276.297 453.805 279.472 456.98C282.647 460.154 286.952 461.938 291.442 461.938H317.713C322.203 461.938 326.509 460.154 329.683 456.98C332.858 453.805 334.642 449.499 334.642 445.009V148.251C334.642 143.794 332.885 139.516 329.751 136.347C326.617 133.178 322.359 131.372 317.903 131.322Z" fill="#ACDDF8"/>
<path d="M341.66 38.4252C342.371 58.9109 327.434 75.3184 303.392 75.3184C298.564 75.3784 293.773 74.4598 289.309 72.618C284.846 70.7761 280.801 68.049 277.42 64.6014C274.039 61.1538 271.391 57.057 269.637 52.5581C267.882 48.0593 267.057 43.2516 267.211 38.4252C267.074 33.4537 267.951 28.5063 269.79 23.8851C271.628 19.2639 274.388 15.0657 277.903 11.5468C281.417 8.02784 285.612 5.26191 290.231 3.41777C294.85 1.57363 299.796 0.689963 304.767 0.820695C327.339 0.820695 341.66 17.2282 341.66 38.4252Z" fill="#F1898C"/>
<path d="M981.069 274.295C980.28 275.545 979.774 276.952 979.585 278.418C979.397 279.885 979.531 281.374 979.979 282.783L924.355 206.91C926.657 207.905 929.242 208.025 931.626 207.248C934.01 206.47 936.028 204.85 937.301 202.69L942.991 193.206L989.226 261.728L981.069 274.295Z" fill="#F1898C"/>
</g>
<defs>
<clipPath id="clip0_38_50">
<rect width="1281" height="462" fill="white"/>
</clipPath>
</defs>
</svg>
